
        <svg xmlns="http://www.w3.org/2000/svg" xmlns:xlink="http://www.w3.org/1999/xlink" version="1.1" width="3171.919770773639" height="1162.1776504297995" viewBox="0 0 3171.919770773639 1162.1776504297995">
			
			<g transform="scale(8.595988538681949) translate(10, 10)">
				<defs id="SvgjsDefs1878"/><g id="SvgjsG1879" featureKey="symbolFeature-0" transform="matrix(1.506177820120636,0,0,1.506177820120636,-12.8025085982192,-14.697283731807183)" fill="#fff"><g xmlns="http://www.w3.org/2000/svg"><path d="M29.002,24.352h6.979h24.036h6.98v3.574l1.881-2.005v4.677c-0.676,0.538-0.143,1.587-0.143,2.811   c0,1.768-0.039,0.199,1.145,0.199c1.186,0,1.146,1.568,1.146-0.199c0-1.224,0.533-2.272-0.145-2.811V24.85l5.723-5.056L48,9.758   L19.395,19.793l9.607,8.132V24.352z"/><path d="M64.576,35.25c0-0.099-0.005-0.197-0.011-0.294l2.382-9.741H29.053l2.382,9.731l-0.001,0.017   c-0.005,0.095-0.01,0.191-0.01,0.288c0,9.14,7.436,16.576,16.575,16.576C57.14,51.825,64.576,44.389,64.576,35.25z M47.999,49.825   c-8.037,0-14.575-6.539-14.575-14.576l0.019-0.511l-0.841-3.525h30.797l-0.843,3.526l0.014,0.327   c0.003,0.061,0.007,0.121,0.007,0.182C62.576,43.287,56.037,49.825,47.999,49.825z"/><path d="M17.318,49.794l-0.033,13.195c-0.38,0.002-0.771,0.006-1.199,0.014C11.901,63.695,8.498,67.7,8.5,71.93   c0.002,3.502,2.446,5.948,5.943,5.948c0.608,0,1.24-0.074,1.961-0.246c0.282-0.11,0.564-0.22,0.847-0.329l-0.019,7.662l0.535-0.035   c9.998-0.667,19.872-0.29,29.308,1.093l0.342,0.22V52.884c-9.069-1.412-18.751-2.417-29.57-3.059L17.318,49.794z M21.886,69.227   c-0.006,2.253-1.573,4.53-3.937,5.776c-0.665,0.248-1.329,0.504-1.919,0.742c-0.457,0.103-0.91,0.155-1.345,0.155   c-2.522,0-4.217-1.69-4.218-4.205c0-3.12,2.611-6.206,5.621-6.732c0.674-0.006,1.35-0.01,2.025-0.01   C20.379,65.319,21.893,67.032,21.886,69.227z"/><path d="M79.862,63l-1.148-0.015l-0.031-13.19l-0.528,0.031c-10.816,0.641-20.496,1.646-29.57,3.058V86.24l0.342-0.216   c9.427-1.383,19.298-1.758,29.307-1.094l0.534-0.063l-0.019-7.569c0.318,0.121,0.646,0.246,0.997,0.38   c0.618,0.143,1.232,0.215,1.826,0.215c0,0,0,0,0.001,0c3.488,0,5.926-2.453,5.928-5.965C87.502,67.702,84.068,63.696,79.862,63z    M81.33,75.914c-0.416,0-0.848-0.049-1.209-0.124c-0.691-0.27-1.382-0.531-2.016-0.762c-2.42-1.274-3.988-3.552-3.994-5.803   c-0.007-2.206,1.524-3.927,3.735-4.276h0.33c0.552,0,1.102,0.001,1.57-0.001c3.135,0.533,5.782,3.622,5.782,6.745   C85.529,74.218,83.842,75.914,81.33,75.914z"/></g></g><g id="SvgjsG1880" featureKey="nameFeature-0" transform="matrix(1.2842466616264385,0,0,1.2842466616264385,139,25.181503177452676)" fill="#fff"><path d="M15.68 11.440000000000001 l3.84 0 l-3.72 28.56 l-3.96 0 l-2 -14.32 l-1.88 14.32 l-3.96 0 l-4 -28.56 l3.84 0 l2.08 14.72 l1.92 -14.72 l3.84 0 l2.08 14.72 z M27.028000000000002 11.36 l0 28.48 l-3.8 0 l0 -28.48 l3.8 0 z M36.216 40.24 c-3.04 0 -5.48 -2.48 -5.48 -5.48 l0 -4.36 l3.88 0 l0 4.36 c0 0.88 0.72 1.6 1.6 1.6 s1.56 -0.72 1.56 -1.6 l0 -3.8 l-7.04 -9.72 l0 -4.96 c0 -3.04 2.44 -5.52 5.48 -5.52 c3 0 5.44 2.48 5.44 5.52 l0 4.32 l-3.88 0 l0 -4.32 c0 -0.92 -0.68 -1.6 -1.56 -1.6 s-1.6 0.68 -1.6 1.6 l0 3.64 l7.04 9.72 l0 5.12 c0 3 -2.44 5.48 -5.44 5.48 z M51.24400000000001 40.08 c-3.24 0 -5.88 -2.64 -5.88 -5.88 l0 -22.72 l3.8 0 l0 22.72 c0 1.16 0.92 2.12 2.08 2.12 s2.08 -0.96 2.08 -2.12 l0 -22.72 l3.8 0 l0 22.72 c0 3.24 -2.64 5.88 -5.88 5.88 z M65.83200000000001 40.04 l-5 0 l0 -28.52 l5 0 c3.4 0 6.12 2.76 6.12 6.16 l0 16.2 c0 1.64 -0.64 3.2 -1.8 4.36 s-2.68 1.8 -4.32 1.8 z M64.632 15.36 l0 20.84 l1.2 0 c0.6 0 1.2 -0.24 1.64 -0.68 s0.68 -1 0.68 -1.64 l0 -16.2 c0 -1.28 -1.04 -2.32 -2.32 -2.32 l-1.2 0 z M85.06000000000002 40 l-1.44 -9.88 l-4.04 0 l-1.32 9.88 l-3.84 0 l4.32 -28.6 l5.16 0 l5 28.6 l-3.84 0 z M80.10000000000002 26.32 l2.96 0 l-1.52 -10.4 z M116.47600000000001 11.440000000000001 l-5.36 17.36 l0 11.2 l-3.88 0 l0 -11.24 l-4.92 -17.32 l4 0 l2.92 10.28 l3.2 -10.28 l4.04 0 z M126.06400000000002 40.08 c-3.24 0 -5.88 -2.64 -5.88 -5.88 l0 -22.72 l3.8 0 l0 22.72 c0 1.16 0.92 2.12 2.08 2.12 s2.08 -0.96 2.08 -2.12 l0 -22.72 l3.8 0 l0 22.72 c0 3.24 -2.64 5.88 -5.88 5.88 z M141.532 40.08 c-3.24 0 -5.88 -2.64 -5.88 -5.88 l0 -22.72 l3.8 0 l0 22.72 c0 1.16 0.92 2.12 2.08 2.12 s2.08 -0.96 2.08 -2.12 l0 -22.72 l3.8 0 l0 22.72 c0 3.24 -2.64 5.88 -5.88 5.88 z M159.64000000000001 39.84 l-4.2 -15.76 l-0.6 1 l0 14.88 l-3.72 0 l0 -28.52 l3.72 0 l0 6.2 l2.48 -6.2 l4.6 0 l-3.8 8.24 l5.4 20.16 l-3.88 0 z"/></g>
			</g>
		</svg>
	